<svg width="284" height="95" viewBox="0 0 284 95" fill="none" xmlns="http://www.w3.org/2000/svg">
<path d="M95 31.4173C-26.7949 51.2402 81.7563 95 54.4017 95C27.0471 95 0 66.7666 0 43.0118C0 19.257 22.1753 0 49.5299 0C76.8845 0 -12.1795 10.4724 95 31.4173Z" fill="#3B82F6"/>
<path d="M115 21V58V95" stroke="#676F6E" stroke-opacity="0.55"/>
<path d="M216 79H115" stroke="#7E7E7E" stroke-opacity="0.54"/>
<path d="M143.428 64.412C143.428 65.684 143.104 66.824 142.456 67.832C141.808 68.816 140.932 69.596 139.828 70.172C138.748 70.724 137.56 71 136.264 71H124.204V45.44H136.516C137.716 45.44 138.748 45.764 139.612 46.412C140.476 47.036 141.148 47.852 141.628 48.86C142.108 49.844 142.348 50.876 142.348 51.956C142.348 53.228 142.024 54.404 141.376 55.484C140.728 56.564 139.828 57.368 138.676 57.896C140.116 58.328 141.268 59.132 142.132 60.308C142.996 61.484 143.428 62.852 143.428 64.412ZM126.724 47.636V57.068H135.508C136.348 57.068 137.092 56.852 137.74 56.42C138.412 55.964 138.928 55.388 139.288 54.692C139.672 53.972 139.864 53.192 139.864 52.352C139.864 51.488 139.684 50.696 139.324 49.976C138.964 49.256 138.472 48.692 137.848 48.284C137.224 47.852 136.516 47.636 135.724 47.636H126.724ZM140.908 63.98C140.908 63.14 140.716 62.348 140.332 61.604C139.948 60.86 139.42 60.26 138.748 59.804C138.1 59.348 137.356 59.12 136.516 59.12H126.724V68.804H136.264C137.128 68.804 137.908 68.576 138.604 68.12C139.3 67.664 139.852 67.076 140.26 66.356C140.692 65.612 140.908 64.82 140.908 63.98ZM147.677 48.32V44.72H150.125V48.32H147.677ZM147.677 71V52.244H150.125V71H147.677ZM164.876 54.404C163.244 54.452 161.804 54.908 160.556 55.772C159.332 56.636 158.468 57.824 157.964 59.336V71H155.516V52.244H157.82V56.744C158.468 55.424 159.32 54.356 160.376 53.54C161.456 52.724 162.596 52.268 163.796 52.172C164.036 52.148 164.24 52.136 164.408 52.136C164.576 52.136 164.732 52.148 164.876 52.172V54.404ZM166.385 61.676C166.385 59.9 166.745 58.28 167.465 56.816C168.209 55.328 169.229 54.14 170.525 53.252C171.821 52.364 173.297 51.92 174.953 51.92C176.513 51.92 177.905 52.34 179.129 53.18C180.377 53.996 181.349 54.992 182.045 56.168V44.72H184.493V68.048C184.493 68.696 184.781 69.032 185.357 69.056V71C184.877 71.072 184.505 71.096 184.241 71.072C183.713 71.048 183.257 70.856 182.873 70.496C182.513 70.112 182.333 69.68 182.333 69.2V67.364C181.589 68.588 180.581 69.56 179.309 70.28C178.037 71 176.717 71.36 175.349 71.36C174.053 71.36 172.853 71.096 171.749 70.568C170.645 70.04 169.685 69.32 168.869 68.408C168.077 67.496 167.465 66.464 167.033 65.312C166.601 64.136 166.385 62.924 166.385 61.676ZM182.045 64.556V58.76C181.733 57.896 181.229 57.116 180.533 56.42C179.837 55.7 179.045 55.136 178.157 54.728C177.293 54.296 176.429 54.08 175.565 54.08C174.221 54.08 173.045 54.452 172.037 55.196C171.053 55.916 170.285 56.864 169.733 58.04C169.181 59.192 168.905 60.404 168.905 61.676C168.905 63.02 169.205 64.268 169.805 65.42C170.429 66.572 171.269 67.496 172.325 68.192C173.381 68.864 174.569 69.2 175.889 69.2C176.705 69.2 177.557 68.996 178.445 68.588C179.357 68.156 180.149 67.592 180.821 66.896C181.517 66.2 181.925 65.42 182.045 64.556ZM199.22 71.36C197.756 71.36 196.4 70.988 195.152 70.244C193.904 69.476 192.932 68.516 192.236 67.364V71H190.04V44.72H192.488V56.168C193.328 54.896 194.336 53.876 195.512 53.108C196.688 52.316 198.056 51.92 199.616 51.92C200.936 51.92 202.112 52.196 203.144 52.748C204.2 53.3 205.1 54.044 205.844 54.98C206.588 55.892 207.152 56.936 207.536 58.112C207.92 59.264 208.112 60.452 208.112 61.676C208.112 63.428 207.716 65.036 206.924 66.5C206.156 67.964 205.1 69.14 203.756 70.028C202.412 70.916 200.9 71.36 199.22 71.36ZM198.644 69.2C200.012 69.2 201.212 68.84 202.244 68.12C203.3 67.4 204.128 66.476 204.728 65.348C205.328 64.196 205.628 62.972 205.628 61.676C205.628 60.356 205.34 59.12 204.764 57.968C204.212 56.816 203.432 55.88 202.424 55.16C201.416 54.44 200.252 54.08 198.932 54.08C197.468 54.08 196.172 54.548 195.044 55.484C193.94 56.42 193.088 57.512 192.488 58.76V64.592C192.608 65.456 193.004 66.236 193.676 66.932C194.348 67.628 195.14 68.18 196.052 68.588C196.964 68.996 197.828 69.2 198.644 69.2ZM220.251 71.36C218.451 71.36 216.843 70.916 215.427 70.028C214.035 69.14 212.943 67.964 212.151 66.5C211.359 65.012 210.963 63.404 210.963 61.676C210.963 59.924 211.359 58.316 212.151 56.852C212.967 55.364 214.071 54.176 215.463 53.288C216.879 52.376 218.475 51.92 220.251 51.92C222.051 51.92 223.647 52.376 225.039 53.288C226.455 54.176 227.559 55.364 228.351 56.852C229.167 58.316 229.575 59.924 229.575 61.676C229.575 63.404 229.179 65.012 228.387 66.5C227.595 67.964 226.491 69.14 225.075 70.028C223.683 70.916 222.075 71.36 220.251 71.36ZM213.447 61.712C213.447 63.104 213.747 64.376 214.347 65.528C214.971 66.656 215.799 67.556 216.831 68.228C217.863 68.876 219.003 69.2 220.251 69.2C221.499 69.2 222.639 68.864 223.671 68.192C224.703 67.52 225.531 66.608 226.155 65.456C226.779 64.304 227.091 63.032 227.091 61.64C227.091 60.248 226.779 58.976 226.155 57.824C225.531 56.672 224.703 55.76 223.671 55.088C222.639 54.416 221.499 54.08 220.251 54.08C219.027 54.08 217.899 54.428 216.867 55.124C215.835 55.796 215.007 56.708 214.383 57.86C213.759 59.012 213.447 60.296 213.447 61.712ZM232.157 65.6C232.157 64.448 232.493 63.452 233.165 62.612C233.837 61.748 234.761 61.076 235.937 60.596C237.137 60.116 238.517 59.876 240.077 59.876C240.989 59.876 241.937 59.96 242.921 60.128C243.905 60.272 244.781 60.476 245.549 60.74V59.156C245.549 57.572 245.081 56.312 244.145 55.376C243.209 54.44 241.913 53.972 240.257 53.972C239.273 53.972 238.289 54.164 237.305 54.548C236.321 54.908 235.301 55.448 234.245 56.168L233.309 54.44C234.533 53.6 235.733 52.976 236.909 52.568C238.085 52.136 239.285 51.92 240.509 51.92C242.813 51.92 244.637 52.58 245.981 53.9C247.325 55.22 247.997 57.044 247.997 59.372V68.048C247.997 68.696 248.297 69.032 248.897 69.056V71C248.369 71.072 247.997 71.096 247.781 71.072C247.181 71.048 246.725 70.856 246.413 70.496C246.101 70.136 245.933 69.752 245.909 69.344L245.873 67.976C245.033 69.056 243.941 69.896 242.597 70.496C241.253 71.072 239.885 71.36 238.493 71.36C237.269 71.36 236.177 71.108 235.217 70.604C234.257 70.076 233.501 69.38 232.949 68.516C232.421 67.628 232.157 66.656 232.157 65.6ZM244.721 67.04C245.273 66.392 245.549 65.792 245.549 65.24V62.504C243.893 61.856 242.165 61.532 240.365 61.532C238.613 61.532 237.197 61.88 236.117 62.576C235.037 63.272 234.497 64.22 234.497 65.42C234.497 66.452 234.893 67.388 235.685 68.228C236.501 69.068 237.629 69.488 239.069 69.488C240.245 69.488 241.337 69.26 242.345 68.804C243.377 68.348 244.169 67.76 244.721 67.04ZM262.646 54.404C261.014 54.452 259.574 54.908 258.326 55.772C257.102 56.636 256.238 57.824 255.734 59.336V71H253.286V52.244H255.59V56.744C256.238 55.424 257.09 54.356 258.146 53.54C259.226 52.724 260.366 52.268 261.566 52.172C261.806 52.148 262.01 52.136 262.178 52.136C262.346 52.136 262.502 52.148 262.646 52.172V54.404ZM264.155 61.676C264.155 59.9 264.515 58.28 265.235 56.816C265.979 55.328 266.999 54.14 268.295 53.252C269.591 52.364 271.067 51.92 272.723 51.92C274.283 51.92 275.675 52.34 276.899 53.18C278.147 53.996 279.119 54.992 279.815 56.168V44.72H282.263V68.048C282.263 68.696 282.551 69.032 283.127 69.056V71C282.647 71.072 282.275 71.096 282.011 71.072C281.483 71.048 281.027 70.856 280.643 70.496C280.283 70.112 280.103 69.68 280.103 69.2V67.364C279.359 68.588 278.351 69.56 277.079 70.28C275.807 71 274.487 71.36 273.119 71.36C271.823 71.36 270.623 71.096 269.519 70.568C268.415 70.04 267.455 69.32 266.639 68.408C265.847 67.496 265.235 66.464 264.803 65.312C264.371 64.136 264.155 62.924 264.155 61.676ZM279.815 64.556V58.76C279.503 57.896 278.999 57.116 278.303 56.42C277.607 55.7 276.815 55.136 275.927 54.728C275.063 54.296 274.199 54.08 273.335 54.08C271.991 54.08 270.815 54.452 269.807 55.196C268.823 55.916 268.055 56.864 267.503 58.04C266.951 59.192 266.675 60.404 266.675 61.676C266.675 63.02 266.975 64.268 267.575 65.42C268.199 66.572 269.039 67.496 270.095 68.192C271.151 68.864 272.339 69.2 273.659 69.2C274.475 69.2 275.327 68.996 276.215 68.588C277.127 68.156 277.919 67.592 278.591 66.896C279.287 66.2 279.695 65.42 279.815 64.556Z" fill="#3B82F6"/>
</svg>